<svg width="1200" height="900" viewBox="0 0 1200 900" xmlns="http://www.w3.org/2000/svg">
  <defs>
    <linearGradient id="child-bg" x1="0" y1="0" x2="1" y2="1">
      <stop offset="0" stop-color="#fef3c7"/>
      <stop offset="1" stop-color="#fee2e2"/>
    </linearGradient>
    <linearGradient id="child-card" x1="0" y1="0" x2="1" y2="1">
      <stop offset="0" stop-color="#ffffff"/>
      <stop offset="1" stop-color="#fff7ed"/>
    </linearGradient>
  </defs>
  <rect width="1200" height="900" fill="url(#child-bg)"/>
  <circle cx="180" cy="140" r="120" fill="#fdba74" opacity="0.55"/>
  <circle cx="1020" cy="200" r="150" fill="#fecdd3" opacity="0.55"/>
  <rect x="200" y="210" width="800" height="480" rx="40" fill="url(#child-card)" stroke="#fed7aa"/>
  <rect x="260" y="270" width="260" height="18" rx="9" fill="#fdba74" opacity="0.55"/>
  <rect x="260" y="310" width="460" height="12" rx="6" fill="#fbcfe8"/>
  <rect x="260" y="350" width="620" height="8" rx="4" fill="#fecdd3"/>
  <rect x="260" y="390" width="540" height="8" rx="4" fill="#fed7aa"/>
  <rect x="260" y="440" width="320" height="160" rx="20" fill="#fde68a"/>
  <rect x="610" y="440" width="320" height="160" rx="20" fill="#fecaca"/>
  <rect x="260" y="630" width="280" height="12" rx="6" fill="#fdba74"/>
  <rect x="260" y="660" width="200" height="12" rx="6" fill="#fed7aa"/>
</svg>
