<svg width="1200" height="900" viewBox="0 0 1200 900" xmlns="http://www.w3.org/2000/svg">
  <defs>
    <linearGradient id="hero-bg" x1="0" y1="0" x2="1" y2="1">
      <stop offset="0" stop-color="#ede9fe"/>
      <stop offset="1" stop-color="#e0f2fe"/>
    </linearGradient>
    <linearGradient id="hero-card" x1="0" y1="0" x2="1" y2="1">
      <stop offset="0" stop-color="#ffffff"/>
      <stop offset="1" stop-color="#f8fafc"/>
    </linearGradient>
  </defs>
  <rect width="1200" height="900" fill="url(#hero-bg)"/>
  <circle cx="980" cy="120" r="140" fill="#c4b5fd" opacity="0.6"/>
  <circle cx="220" cy="180" r="110" fill="#bae6fd" opacity="0.6"/>
  <rect x="220" y="220" width="760" height="460" rx="36" fill="url(#hero-card)" stroke="#e2e8f0"/>
  <rect x="260" y="260" width="260" height="18" rx="9" fill="#e2e8f0"/>
  <rect x="260" y="300" width="400" height="14" rx="7" fill="#e5e7eb"/>
  <rect x="260" y="350" width="640" height="8" rx="4" fill="#cbd5f5"/>
  <rect x="260" y="380" width="520" height="8" rx="4" fill="#e2e8f0"/>
  <rect x="260" y="430" width="200" height="120" rx="16" fill="#ddd6fe"/>
  <rect x="480" y="430" width="200" height="120" rx="16" fill="#bae6fd"/>
  <rect x="700" y="430" width="200" height="120" rx="16" fill="#dbeafe"/>
  <rect x="260" y="580" width="320" height="12" rx="6" fill="#e2e8f0"/>
  <rect x="260" y="610" width="220" height="12" rx="6" fill="#cbd5f5"/>
</svg>
