<svg width="1200" height="900" viewBox="0 0 1200 900" fill="none" xmlns="http://www.w3.org/2000/svg">
  <defs>
    <linearGradient id="careBg" x1="117" y1="118" x2="1038" y2="776" gradientUnits="userSpaceOnUse">
      <stop stop-color="#FFF7EF"/>
      <stop offset="0.42" stop-color="#F3FAFF"/>
      <stop offset="1" stop-color="#F4F8F3"/>
    </linearGradient>
    <linearGradient id="frame" x1="178" y1="190" x2="1008" y2="689" gradientUnits="userSpaceOnUse">
      <stop stop-color="#FFFFFF"/>
      <stop offset="1" stop-color="#F9FBFD"/>
    </linearGradient>
    <linearGradient id="phoneShell" x1="463" y1="230" x2="756" y2="708" gradientUnits="userSpaceOnUse">
      <stop stop-color="#183650"/>
      <stop offset="1" stop-color="#224E6A"/>
    </linearGradient>
    <linearGradient id="mint" x1="188" y1="468" x2="410" y2="623" gradientUnits="userSpaceOnUse">
      <stop stop-color="#DCF7F1"/>
      <stop offset="1" stop-color="#C7EBE0"/>
    </linearGradient>
    <linearGradient id="rose" x1="826" y1="221" x2="1022" y2="388" gradientUnits="userSpaceOnUse">
      <stop stop-color="#FFE5D7"/>
      <stop offset="1" stop-color="#FFD0BA"/>
    </linearGradient>
    <filter id="frameShadow" x="127" y="133" width="958" height="646" filterUnits="userSpaceOnUse" color-interpolation-filters="sRGB">
      <feFlood flood-opacity="0" result="BackgroundImageFix"/>
      <feColorMatrix in="SourceAlpha" type="matrix" values="0 0 0 0 0 0 0 0 0 0 0 0 0 0 0 0 0 0 127 0" result="hardAlpha"/>
      <feOffset dy="16"/>
      <feGaussianBlur stdDeviation="24"/>
      <feColorMatrix type="matrix" values="0 0 0 0 0.135 0 0 0 0 0.21 0 0 0 0 0.271 0 0 0 0.1 0"/>
      <feBlend mode="normal" in2="BackgroundImageFix" result="effect1_dropShadow_care"/>
      <feBlend mode="normal" in="SourceGraphic" in2="effect1_dropShadow_care" result="shape"/>
    </filter>
  </defs>

  <rect width="1200" height="900" rx="48" fill="url(#careBg)"/>
  <circle cx="155" cy="164" r="88" fill="#FFE4CF"/>
  <circle cx="1036" cy="724" r="102" fill="#D7F1E6"/>
  <circle cx="1010" cy="160" r="76" fill="#D6ECFF"/>

  <g filter="url(#frameShadow)">
    <rect x="175" y="165" width="862" height="550" rx="38" fill="url(#frame)"/>
    <rect x="175.75" y="165.75" width="860.5" height="548.5" rx="37.25" stroke="#E8EEF3" stroke-width="1.5"/>
  </g>

  <rect x="226" y="210" width="177" height="18" rx="9" fill="#E7EDF2"/>
  <rect x="226" y="243" width="241" height="11" rx="5.5" fill="#D5DFE8"/>

  <rect x="462" y="205" width="295" height="472" rx="44" fill="url(#phoneShell)"/>
  <rect x="481" y="225" width="257" height="432" rx="30" fill="#FBFCFD"/>
  <rect x="560" y="238" width="98" height="8" rx="4" fill="#C2CFDB"/>
  <rect x="505" y="271" width="209" height="117" rx="26" fill="#EEF7F5"/>
  <circle cx="554" cy="330" r="32" fill="#FFD6BF"/>
  <path d="M518 360C518 336.804 536.804 318 560 318H574C597.196 318 616 336.804 616 360V388H518V360Z" fill="#2B7A78"/>
  <rect x="597" y="315" width="87" height="10" rx="5" fill="#21425E"/>
  <rect x="597" y="335" width="70" height="8" rx="4" fill="#82A0B8"/>
  <rect x="597" y="354" width="52" height="8" rx="4" fill="#C3D0DA"/>

  <rect x="505" y="409" width="209" height="82" rx="22" fill="#FFF3E2"/>
  <rect x="527" y="431" width="71" height="9" rx="4.5" fill="#A9502E"/>
  <rect x="527" y="448" width="99" height="7" rx="3.5" fill="#D59B76"/>
  <path d="M532 473H686" stroke="#EDC7AB" stroke-width="10" stroke-linecap="round"/>

  <rect x="505" y="512" width="209" height="114" rx="24" fill="#E9F1FC"/>
  <rect x="526" y="539" width="76" height="9" rx="4.5" fill="#2E618C"/>
  <rect x="526" y="556" width="58" height="7" rx="3.5" fill="#89A8C7"/>
  <path d="M532 597C548 578 563 578 578 597C593 616 608 616 623 597C638 578 653 578 668 597" stroke="#4C88BF" stroke-width="8" stroke-linecap="round"/>

  <rect x="203" y="446" width="235" height="184" rx="30" fill="url(#mint)"/>
  <rect x="232" y="477" width="101" height="12" rx="6" fill="#226A69"/>
  <rect x="232" y="500" width="148" height="8" rx="4" fill="#6AA39A"/>
  <rect x="232" y="535" width="175" height="68" rx="18" fill="#FAFFFD"/>
  <circle cx="265" cy="569" r="15" fill="#45B59E"/>
  <path d="M258 569L263 574L273 563" stroke="white" stroke-width="4" stroke-linecap="round" stroke-linejoin="round"/>
  <rect x="289" y="560" width="74" height="8" rx="4" fill="#226A69"/>
  <rect x="289" y="577" width="98" height="7" rx="3.5" fill="#97BFB7"/>

  <rect x="793" y="211" width="225" height="189" rx="30" fill="url(#rose)"/>
  <rect x="821" y="244" width="89" height="12" rx="6" fill="#A9502E"/>
  <rect x="821" y="266" width="140" height="8" rx="4" fill="#D59B76"/>
  <rect x="821" y="302" width="169" height="72" rx="20" fill="#FFF9F5"/>
  <rect x="846" y="322" width="117" height="10" rx="5" fill="#A9502E" fill-opacity="0.78"/>
  <rect x="846" y="341" width="82" height="8" rx="4" fill="#E2B697"/>

  <rect x="787" y="468" width="240" height="160" rx="30" fill="#FFFFFF"/>
  <rect x="814" y="497" width="101" height="11" rx="5.5" fill="#1F4C73"/>
  <rect x="814" y="519" width="148" height="8" rx="4" fill="#8AA8C2"/>
  <circle cx="850" cy="575" r="22" fill="#D7F1E6"/>
  <path d="M839 575L847 583L863 566" stroke="#2B7A78" stroke-width="5" stroke-linecap="round" stroke-linejoin="round"/>
  <rect x="885" y="568" width="88" height="8" rx="4" fill="#285C84"/>
  <rect x="885" y="586" width="67" height="7" rx="3.5" fill="#9EB8CD"/>

  <path d="M305 699C452 746 696 753 903 699" stroke="#DCE7EE" stroke-width="15" stroke-linecap="round"/>
</svg>
